<mxfile host="app.diagrams.net" modified="2024-02-25T19:16:38.909Z" agent="Mozilla/5.0 (Macintosh; Intel Mac OS X 10_15_7) AppleWebKit/537.36 (KHTML, like Gecko) Chrome/120.0.0.0 Safari/537.36" etag="xjGiYNhz9Bf9mGaGoMzv" version="23.1.6" type="device">
  <diagram name="Page-1" id="cDv0-JnkPXD5icRVHpOT">
    <mxGraphModel dx="1090" dy="1038" grid="1" gridSize="10" guides="1" tooltips="1" connect="1" arrows="1" fold="1" page="1" pageScale="1" pageWidth="827" pageHeight="1169" math="0" shadow="0">
      <root>
        <mxCell id="0" />
        <mxCell id="1" parent="0" />
        <mxCell id="5W4cO0hXTMBB5HOUR70D-1" value="Electricity demand API" style="rounded=0;whiteSpace=wrap;html=1;fillColor=#dae8fc;strokeColor=#6c8ebf;" vertex="1" parent="1">
          <mxGeometry x="40" y="70" width="120" height="60" as="geometry" />
        </mxCell>
        <mxCell id="5W4cO0hXTMBB5HOUR70D-2" value="Weather data API" style="rounded=0;whiteSpace=wrap;html=1;fillColor=#dae8fc;strokeColor=#6c8ebf;" vertex="1" parent="1">
          <mxGeometry x="40" y="180" width="120" height="60" as="geometry" />
        </mxCell>
        <mxCell id="5W4cO0hXTMBB5HOUR70D-11" value="" style="edgeStyle=orthogonalEdgeStyle;rounded=0;orthogonalLoop=1;jettySize=auto;html=1;" edge="1" parent="1" source="5W4cO0hXTMBB5HOUR70D-3" target="5W4cO0hXTMBB5HOUR70D-10">
          <mxGeometry relative="1" as="geometry" />
        </mxCell>
        <mxCell id="5W4cO0hXTMBB5HOUR70D-3" value="Transform" style="rounded=0;whiteSpace=wrap;html=1;" vertex="1" parent="1">
          <mxGeometry x="320" y="112.5" width="70" height="75" as="geometry" />
        </mxCell>
        <mxCell id="5W4cO0hXTMBB5HOUR70D-9" value="" style="edgeStyle=orthogonalEdgeStyle;rounded=0;orthogonalLoop=1;jettySize=auto;html=1;" edge="1" parent="1" source="5W4cO0hXTMBB5HOUR70D-6" target="5W4cO0hXTMBB5HOUR70D-3">
          <mxGeometry relative="1" as="geometry" />
        </mxCell>
        <mxCell id="5W4cO0hXTMBB5HOUR70D-6" value="Parquet files" style="shape=cylinder3;whiteSpace=wrap;html=1;boundedLbl=1;backgroundOutline=1;size=15;fillColor=#d5e8d4;strokeColor=#82b366;" vertex="1" parent="1">
          <mxGeometry x="220" y="110" width="60" height="80" as="geometry" />
        </mxCell>
        <mxCell id="5W4cO0hXTMBB5HOUR70D-7" style="edgeStyle=orthogonalEdgeStyle;rounded=0;orthogonalLoop=1;jettySize=auto;html=1;exitX=1;exitY=0.5;exitDx=0;exitDy=0;entryX=0;entryY=0.428;entryDx=0;entryDy=0;entryPerimeter=0;" edge="1" parent="1" source="5W4cO0hXTMBB5HOUR70D-1" target="5W4cO0hXTMBB5HOUR70D-6">
          <mxGeometry relative="1" as="geometry" />
        </mxCell>
        <mxCell id="5W4cO0hXTMBB5HOUR70D-8" style="edgeStyle=orthogonalEdgeStyle;rounded=0;orthogonalLoop=1;jettySize=auto;html=1;exitX=1;exitY=0.5;exitDx=0;exitDy=0;entryX=-0.045;entryY=0.735;entryDx=0;entryDy=0;entryPerimeter=0;" edge="1" parent="1" source="5W4cO0hXTMBB5HOUR70D-2" target="5W4cO0hXTMBB5HOUR70D-6">
          <mxGeometry relative="1" as="geometry" />
        </mxCell>
        <mxCell id="5W4cO0hXTMBB5HOUR70D-15" style="edgeStyle=orthogonalEdgeStyle;rounded=0;orthogonalLoop=1;jettySize=auto;html=1;exitX=1.015;exitY=0.423;exitDx=0;exitDy=0;exitPerimeter=0;entryX=0;entryY=0.5;entryDx=0;entryDy=0;" edge="1" parent="1" source="5W4cO0hXTMBB5HOUR70D-10" target="5W4cO0hXTMBB5HOUR70D-13">
          <mxGeometry relative="1" as="geometry" />
        </mxCell>
        <mxCell id="5W4cO0hXTMBB5HOUR70D-16" style="edgeStyle=orthogonalEdgeStyle;rounded=0;orthogonalLoop=1;jettySize=auto;html=1;exitX=1;exitY=0.741;exitDx=0;exitDy=0;exitPerimeter=0;entryX=0;entryY=0.5;entryDx=0;entryDy=0;" edge="1" parent="1" source="5W4cO0hXTMBB5HOUR70D-10" target="5W4cO0hXTMBB5HOUR70D-14">
          <mxGeometry relative="1" as="geometry" />
        </mxCell>
        <mxCell id="5W4cO0hXTMBB5HOUR70D-10" value="Feature&lt;br&gt;Store" style="shape=cylinder3;whiteSpace=wrap;html=1;boundedLbl=1;backgroundOutline=1;size=15;fillColor=#d5e8d4;strokeColor=#82b366;" vertex="1" parent="1">
          <mxGeometry x="430" y="110" width="60" height="80" as="geometry" />
        </mxCell>
        <mxCell id="5W4cO0hXTMBB5HOUR70D-13" value="Online features" style="rounded=0;whiteSpace=wrap;html=1;fillColor=#ffe6cc;strokeColor=#d79b00;" vertex="1" parent="1">
          <mxGeometry x="550" y="70" width="120" height="60" as="geometry" />
        </mxCell>
        <mxCell id="5W4cO0hXTMBB5HOUR70D-14" value="Offline features" style="rounded=0;whiteSpace=wrap;html=1;fillColor=#ffe6cc;strokeColor=#d79b00;" vertex="1" parent="1">
          <mxGeometry x="550" y="180" width="120" height="60" as="geometry" />
        </mxCell>
      </root>
    </mxGraphModel>
  </diagram>
</mxfile>
